ModelForces
version=1
nRows=22
nColumns=29
inDegrees=no

This file contains the forces exerted on a model during a simulation.

A force is a generalized force, meaning that it can be either a force (N) or a torque (Nm).

Units are S.I. units (second, meters, Newtons, ...)
If the header above contains a line with 'inDegrees', this indicates whether rotational values are in degrees (yes) or radians (no).

endheader
time	gastroc	glut_max	iliopsoas	recfem	hamstrings	soleus	tibant	vasti	ankle_angle_LimitForce	PotentialEnergy	knee_angle_LimitForce	PotentialEnergy	hip_flexion_LimitForce	PotentialEnergy	patellofemoral_knee_angle_con_mobility_F0	patellofemoral_knee_angle_con_mobility_F1	seatConstraint_ground_Fx	seatConstraint_ground_Fy	seatConstraint_ground_Fz	seatConstraint_ground_Mx	seatConstraint_ground_My	seatConstraint_ground_Mz	seatConstraint_femur_r_Fx	seatConstraint_femur_r_Fy	seatConstraint_femur_r_Fz	seatConstraint_femur_r_Mx	seatConstraint_femur_r_My	seatConstraint_femur_r_Mz
      0.00000000	     16.31958205	     49.47383011	      9.49197867	      8.20078135	     33.01537728	    171.87632742	      7.26133492	    134.14415369	      0.00000000	      0.00000000	      0.00000000	      0.00000000	      0.00000000	      0.00000000	     -1.80501081	      1.80501081	    -16.18394126	    264.76602406	     -0.00001977	      2.02665057	      0.12387580	    -55.16304126	     16.18394126	   -264.76602406	      0.00001977	      0.00000000	      0.00000000	      0.00000000
      0.00650244	     16.31957945	     49.44747572	     13.33895962	      9.62955983	     32.97581282	    171.87632732	      7.26133272	    208.87172687	      0.00000000	      0.00000000	      0.00000000	      0.00000000	      0.00000000	      0.00000000	     -2.76697136	      2.76697136	    -12.47354202	    259.64267937	     -0.00001925	      1.98743403	      0.09547454	    -55.96838761	     12.47354202	   -259.64267937	      0.00001925	      0.00000000	      0.00000000	      0.00000000
      0.00749052	     16.31957929	     49.44283465	     14.33883351	     10.11703168	     32.95977092	    171.87632734	      7.26133293	    134.46996049	      0.00000000	      0.00000000	      0.00000000	      0.00000000	      0.00000000	      0.00000000	     -1.82695165	      1.82695165	    -15.44122960	    265.23633239	     -0.00001977	      2.03025056	      0.11819069	    -55.68630719	     15.44122960	   -265.23633239	      0.00001977	      0.00000000	      0.00000000	      0.00000000
      0.00903957	     16.31957911	     49.43523855	     16.02135900	     11.01031692	     32.93714042	    171.87632737	      7.26133313	    142.81306690	      0.00000000	      0.00000000	      0.00000000	      0.00000000	      0.00000000	      0.00000000	     -1.94116926	      1.94116926	    -14.79928812	    264.80071159	     -0.00001972	      2.02691612	      0.11327693	    -55.93474846	     14.79928812	   -264.80071159	      0.00001972	      0.00000000	      0.00000000	      0.00000000
      0.01550947	     16.31957885	     49.39954663	     25.86908274	     16.33078401	     32.84585204	    171.87632741	      7.26133340	    225.96065041	      0.00000000	      0.00000000	      0.00000000	      0.00000000	      0.00000000	      0.00000000	     -3.04618149	      3.04618149	     -9.59050851	    259.72182490	     -0.00001914	      1.98803991	      0.07340628	    -57.57686075	      9.59050851	   -259.72182490	      0.00001914	      0.00000000	      0.00000000	      0.00000000
      0.01643241	     16.31957884	     49.39397370	     27.64691584	     17.26348692	     32.83330586	    171.87632739	      7.26133335	    184.51816173	      0.00000000	      0.00000000	      0.00000000	      0.00000000	      0.00000000	      0.00000000	     -2.52872435	      2.52872435	    -11.03345655	    262.96810131	     -0.00001943	      2.01288850	      0.08445130	    -57.56715102	     11.03345655	   -262.96810131	      0.00001943	      0.00000000	      0.00000000	      0.00000000
      0.01796742	     16.31957883	     49.38445976	     30.71256136	     18.91010176	     32.81156041	    171.87632739	      7.26133330	    180.03403235	      0.00000000	      0.00000000	      0.00000000	      0.00000000	      0.00000000	      0.00000000	     -2.48709549	      2.48709549	    -10.69439755	    263.62658544	     -0.00001946	      2.01792887	      0.08185596	    -57.91344379	     10.69439755	   -263.62658544	      0.00001946	      0.00000000	      0.00000000	      0.00000000
      0.02482612	     16.31957882	     49.33850488	     45.36956411	     27.24752067	     32.70724798	    171.87632737	      7.26133321	    200.42741756	      0.00000000	      0.00000000	      0.00000000	      0.00000000	      0.00000000	      0.00000000	     -2.82345178	      2.82345178	     -7.23915312	    263.70599055	     -0.00001933	      2.01853675	      0.05540769	    -59.83741983	      7.23915312	   -263.70599055	      0.00001933	      0.00000000	      0.00000000	      0.00000000
      0.03667037	     16.31957881	     49.24808208	     71.94348064	     43.27143453	     32.49990647	    171.87632818	      7.26133532	    297.09684192	      0.00000000	      0.00000000	      0.00000000	      0.00000000	      0.00000000	      0.00000000	     -4.19954010	      4.19954010	      1.67054397	    259.47917602	     -0.00001865	      1.98618281	     -0.01279176	    -63.72595762	     -1.67054397	   -259.47917602	      0.00001865	      0.00000000	      0.00000000	      0.00000000
      0.04834202	     16.31957882	     49.14904680	     98.48859190	     59.72082960	     32.47468574	    171.87630537	      7.26130639	    324.62609923	      0.00000000	      0.00000000	      0.00000000	      0.00000000	      0.00000000	      0.00000000	     -4.70179332	      4.70179332	      7.67737178	    260.36559777	     -0.00001847	      1.99296806	     -0.05877120	    -67.25186571	     -7.67737178	   -260.36559777	      0.00001847	      0.00000000	      0.00000000	      0.00000000
      0.06076842	     16.31957881	     49.03736416	    126.83036600	     77.70860550	     20.02429211	    171.87683203	      7.26184046	    401.51038777	      0.00000000	      0.00000000	      0.00000000	      0.00000000	      0.00000000	      0.00000000	     -5.84486120	      5.84486120	     18.33723309	    257.99842370	     -0.00001786	      1.97484878	     -0.14036736	    -72.55532086	    -18.33723309	   -257.99842370	      0.00001786	      0.00000000	      0.00000000	      0.00000000
      0.06243478	     16.31957881	     49.02238296	    130.63022015	     80.15958649	     27.79843521	    171.87655326	      7.26156644	    410.76340710	      0.00000000	      0.00000000	      0.00000000	      0.00000000	      0.00000000	      0.00000000	     -5.98508222	      5.98508222	     18.05629789	    257.63553671	     -0.00001785	      1.97207105	     -0.13821693	    -72.31261686	    -18.05629789	   -257.63553671	      0.00001785	      0.00000000	      0.00000000	      0.00000000
      0.06804590	     16.31957881	     48.97149307	    143.42910472	     88.47791672	     33.15769035	    171.87629991	      7.26131505	    442.19803151	      0.00000000	      0.00000000	      0.00000000	      0.00000000	      0.00000000	      0.00000000	     -6.46136216	      6.46136216	     20.81481164	    256.67470928	     -0.00001766	      1.96471646	     -0.15933203	    -73.60072869	    -20.81481164	   -256.67470928	      0.00001766	      0.00000000	      0.00000000	      0.00000000
      0.07684039	     16.31957881	     48.89221950	    163.48000705	    101.67555660	     14.64455998	    171.87641040	      7.26137815	    491.89070372	      0.00000000	      0.00000000	      0.00000000	      0.00000000	      0.00000000	      0.00000000	     -7.21470054	      7.21470054	     29.94161226	    255.51263452	     -0.00001720	      1.95582157	     -0.22919336	    -78.35074609	    -29.94161226	   -255.51263452	      0.00001720	      0.00000000	      0.00000000	      0.00000000
      0.07823391	     16.31957881	     48.88011379	    166.65058939	    103.77709625	     25.51943866	    171.87636976	      7.26135670	    499.78224004	      0.00000000	      0.00000000	      0.00000000	      0.00000000	      0.00000000	      0.00000000	     -7.33438603	      7.33438603	     28.94504564	    255.14050913	     -0.00001722	      1.95297312	     -0.22156511	    -77.71130317	    -28.94504564	   -255.14050913	      0.00001722	      0.00000000	      0.00000000	      0.00000000
      0.08240391	     16.31957881	     48.84387990	    176.13947695	    110.06710241	     31.17851398	    171.87633197	      7.26133616	    523.40808175	      0.00000000	      0.00000000	      0.00000000	      0.00000000	      0.00000000	      0.00000000	     -7.69268406	      7.69268406	     30.72229502	    254.39192072	     -0.00001709	      1.94724309	     -0.23516910	    -78.50984884	    -30.72229502	   -254.39192072	      0.00001709	      0.00000000	      0.00000000	      0.00000000
      0.09059231	     16.31957881	     48.77514517	    194.74207027	    122.36651616	     32.88907965	    171.87631838	      7.26132868	    569.79918243	      0.00000000	      0.00000000	      0.00000000	      0.00000000	      0.00000000	      0.00000000	     -8.39573513	      8.39573513	     35.86521267	    253.05021491	     -0.00001678	      1.93697312	     -0.27453568	    -81.02021113	    -35.86521267	   -253.05021491	      0.00001678	      0.00000000	      0.00000000	      0.00000000
      0.09795080	     16.31957881	     48.71725001	    211.41206394	    133.28426995	     28.35528805	    171.87633642	      7.26133697	    611.44867719	      0.00000000	      0.00000000	      0.00000000	      0.00000000	      0.00000000	      0.00000000	     -9.02575535	      9.02575535	     41.53517438	    251.92758620	     -0.00001647	      1.92838009	     -0.31793654	    -83.87414057	    -41.53517438	   -251.92758620	      0.00001647	      0.00000000	      0.00000000	      0.00000000
      0.10425360	     16.31957881	     48.67161588	    224.46336100	    142.43428545	     33.39429758	    171.87632429	      7.26133238	    646.63685951	      0.00000000	      0.00000000	      0.00000000	      0.00000000	      0.00000000	      0.00000000	     -9.55733892	      9.55733892	     44.65749668	    250.76751522	     -0.00001625	      1.91950040	     -0.34183642	    -85.31458200	    -44.65749668	   -250.76751522	      0.00001625	      0.00000000	      0.00000000	      0.00000000
      0.11055640	     16.31957881	     48.62963484	    233.84558558	    151.01238384	     29.88626954	    171.87632843	      7.26133349	    679.47129172	      0.00000000	      0.00000000	      0.00000000	      0.00000000	      0.00000000	      0.00000000	    -10.05372464	     10.05372464	     48.79651321	    249.56109703	     -0.00001600	      1.91026597	     -0.37351861	    -87.30427375	    -48.79651321	   -249.56109703	      0.00001600	      0.00000000	      0.00000000	      0.00000000
      0.12116435	     16.31957881	     48.56894273	    246.06955858	    163.65967416	     80.11720365	    171.87631095	      7.26132978	    728.21256971	      0.00000000	      0.00000000	      0.00000000	      0.00000000	      0.00000000	      0.00000000	    -10.78975858	     10.78975858	     44.95152943	    246.83614448	     -0.00001596	      1.88940774	     -0.34408703	    -84.52511242	    -44.95152943	   -246.83614448	      0.00001596	      0.00000000	      0.00000000	      0.00000000
      0.12225805	     16.31957881	     48.56301208	    247.21717652	    164.84661979	     27.49216522	    171.87631769	      7.26133117	    732.92291743	      0.00000000	      0.00000000	      0.00000000	      0.00000000	      0.00000000	      0.00000000	    -10.86056008	     10.86056008	     54.75934245	    247.38722319	     -0.00001559	      1.89362619	     -0.41916122	    -90.06520469	    -54.75934245	   -247.38722319	      0.00001559	      0.00000000	      0.00000000	      0.00000000
